<svg id="svg" version="1.1" xmlns="http://www.w3.org/2000/svg" xmlns:xlink="http://www.w3.org/1999/xlink" width="400" height="248.33333333333334" viewBox="0, 0, 400,248.33333333333334"><g id="svgg"><path id="path0" d="M103.354 77.888 C 103.122 78.167,102.501 78.261,100.878 78.261 C 99.026 78.261,98.645 78.333,98.261 78.758 C 97.917 79.137,97.496 79.255,96.475 79.255 C 95.517 79.255,95.099 79.360,94.997 79.627 C 94.892 79.899,94.465 80.000,93.420 80.000 C 92.449 80.000,91.887 80.120,91.677 80.373 C 91.507 80.578,91.157 80.745,90.899 80.745 C 90.641 80.745,90.238 80.969,90.004 81.242 C 89.723 81.571,89.272 81.739,88.671 81.739 C 88.167 81.739,87.625 81.905,87.453 82.112 C 87.283 82.317,86.948 82.484,86.708 82.484 C 86.468 82.484,86.139 82.645,85.976 82.841 C 85.813 83.037,85.360 83.268,84.969 83.354 C 84.578 83.440,84.125 83.671,83.962 83.867 C 83.799 84.063,83.470 84.224,83.230 84.224 C 82.990 84.224,82.655 84.391,82.484 84.596 C 82.314 84.801,81.937 84.972,81.647 84.977 C 81.356 84.981,80.732 85.372,80.260 85.846 C 79.789 86.320,79.215 86.708,78.986 86.708 C 78.758 86.708,78.431 86.876,78.261 87.081 C 78.091 87.286,77.759 87.453,77.524 87.453 C 77.288 87.453,76.547 88.012,75.877 88.695 C 75.207 89.378,74.453 89.937,74.202 89.938 C 73.600 89.938,62.679 100.875,62.477 101.680 C 62.393 102.016,61.773 102.833,61.100 103.496 C 60.427 104.159,59.876 104.888,59.876 105.116 C 59.876 105.343,59.708 105.668,59.503 105.839 C 59.298 106.009,59.130 106.374,59.130 106.651 C 59.130 106.928,58.739 107.535,58.261 107.999 C 57.783 108.464,57.391 109.048,57.391 109.298 C 57.391 109.548,57.224 109.892,57.019 110.062 C 56.814 110.232,56.646 110.564,56.646 110.799 C 56.646 111.035,56.422 111.430,56.149 111.677 C 55.876 111.924,55.652 112.377,55.652 112.683 C 55.652 112.989,55.484 113.303,55.280 113.382 C 55.075 113.460,54.907 113.794,54.907 114.123 C 54.907 114.452,54.739 114.861,54.534 115.031 C 54.327 115.203,54.161 115.744,54.161 116.248 C 54.161 116.849,53.993 117.301,53.665 117.582 C 53.349 117.852,53.168 118.315,53.168 118.849 C 53.168 119.312,53.000 119.830,52.795 120.000 C 52.590 120.170,52.422 120.579,52.422 120.908 C 52.422 121.237,52.255 121.571,52.050 121.649 C 51.779 121.753,51.677 122.178,51.677 123.201 C 51.677 124.303,51.569 124.703,51.180 125.036 C 50.797 125.363,50.683 125.768,50.683 126.799 C 50.683 127.686,50.557 128.242,50.311 128.447 C 50.024 128.685,49.938 129.343,49.938 131.304 C 49.938 133.252,49.851 133.924,49.570 134.158 C 49.268 134.408,49.190 135.481,49.135 140.089 L 49.068 145.714 48.403 145.791 C 48.037 145.833,47.605 146.029,47.441 146.226 C 47.252 146.454,46.673 146.584,45.847 146.584 C 44.865 146.584,44.440 146.705,44.099 147.081 C 43.802 147.409,43.334 147.578,42.721 147.578 C 42.125 147.578,41.741 147.711,41.649 147.950 C 41.571 148.155,41.237 148.323,40.908 148.323 C 40.579 148.323,40.170 148.491,40.000 148.696 C 39.830 148.901,39.498 149.068,39.263 149.068 C 39.027 149.068,38.632 149.292,38.385 149.565 C 38.138 149.839,37.712 150.062,37.440 150.062 C 37.168 150.062,36.565 150.453,36.100 150.932 C 35.636 151.410,35.058 151.801,34.817 151.801 C 34.576 151.801,34.057 152.137,33.665 152.547 C 33.272 152.957,32.773 153.292,32.556 153.292 C 32.338 153.292,31.384 154.075,30.435 155.031 C 29.305 156.170,28.514 156.770,28.143 156.770 C 27.716 156.770,27.578 156.912,27.578 157.350 C 27.578 157.744,27.020 158.463,25.839 159.593 C 24.815 160.571,24.099 161.460,24.099 161.754 C 24.099 162.028,23.764 162.581,23.354 162.981 C 22.944 163.382,22.609 163.926,22.609 164.189 C 22.609 164.453,22.217 165.013,21.739 165.433 C 21.261 165.852,20.870 166.406,20.870 166.662 C 20.870 166.918,20.646 167.330,20.373 167.578 C 20.099 167.825,19.876 168.278,19.876 168.583 C 19.876 168.889,19.708 169.204,19.503 169.282 C 19.298 169.361,19.130 169.695,19.130 170.024 C 19.130 170.353,18.963 170.762,18.758 170.932 C 18.551 171.103,18.385 171.645,18.385 172.149 C 18.385 172.750,18.217 173.201,17.888 173.483 C 17.505 173.810,17.391 174.216,17.391 175.247 C 17.391 176.133,17.266 176.690,17.019 176.894 C 16.755 177.113,16.646 177.693,16.646 178.882 C 16.646 180.071,16.537 180.650,16.273 180.870 C 15.720 181.329,15.720 191.342,16.273 191.801 C 16.542 192.024,16.646 192.614,16.646 193.917 C 16.646 195.293,16.735 195.757,17.019 195.866 C 17.288 195.970,17.391 196.391,17.391 197.386 C 17.391 198.455,17.502 198.858,17.888 199.188 C 18.217 199.470,18.385 199.921,18.385 200.522 C 18.385 201.026,18.551 201.567,18.758 201.739 C 18.963 201.909,19.130 202.309,19.130 202.627 C 19.130 202.945,19.295 203.297,19.496 203.410 C 19.697 203.522,19.899 203.858,19.944 204.156 C 19.990 204.454,20.217 204.908,20.448 205.164 C 20.680 205.420,20.870 205.860,20.870 206.142 C 20.870 206.424,21.037 206.719,21.242 206.798 C 21.447 206.877,21.615 207.207,21.615 207.533 C 21.615 207.925,22.034 208.511,22.857 209.269 C 23.540 209.898,24.099 210.605,24.099 210.840 C 24.099 211.075,24.882 212.074,25.839 213.060 C 26.874 214.128,27.578 215.066,27.578 215.377 C 27.578 215.756,27.734 215.901,28.143 215.901 C 28.514 215.901,29.305 216.501,30.435 217.640 C 31.384 218.596,32.360 219.379,32.603 219.379 C 32.847 219.379,33.593 219.938,34.262 220.621 C 34.969 221.342,35.701 221.863,36.008 221.863 C 36.299 221.863,36.602 222.031,36.680 222.236 C 36.759 222.441,37.077 222.609,37.387 222.609 C 37.698 222.609,38.091 222.776,38.261 222.981 C 38.431 223.186,38.781 223.354,39.039 223.354 C 39.297 223.354,39.699 223.578,39.933 223.851 C 40.167 224.124,40.617 224.348,40.933 224.348 C 41.248 224.348,41.571 224.516,41.649 224.720 C 41.747 224.974,42.144 225.093,42.892 225.093 C 43.639 225.093,44.036 225.212,44.134 225.466 C 44.352 226.033,255.430 226.033,255.901 225.466 C 256.079 225.251,256.621 225.093,257.181 225.093 C 257.815 225.093,258.202 224.964,258.295 224.720 C 258.374 224.516,258.688 224.348,258.994 224.348 C 259.300 224.348,259.753 224.124,260.000 223.851 C 260.302 223.517,260.765 223.354,261.413 223.354 C 262.040 223.354,262.426 223.224,262.519 222.981 C 262.598 222.776,262.916 222.609,263.226 222.609 C 263.536 222.609,263.929 222.441,264.099 222.236 C 264.269 222.031,264.647 221.863,264.939 221.863 C 265.241 221.863,265.781 221.489,266.194 220.994 C 266.606 220.499,267.147 220.124,267.448 220.124 C 267.739 220.124,268.356 219.733,268.820 219.255 C 269.283 218.776,269.838 218.385,270.052 218.385 C 270.555 218.385,278.261 210.674,278.261 210.170 C 278.261 209.960,278.820 209.217,279.503 208.519 C 280.186 207.821,280.745 207.041,280.745 206.786 C 280.745 206.531,280.969 206.130,281.242 205.896 C 281.516 205.662,281.739 205.260,281.739 205.002 C 281.739 204.744,281.907 204.394,282.112 204.224 C 282.317 204.053,282.484 203.660,282.484 203.350 C 282.484 203.040,282.652 202.722,282.857 202.643 C 283.062 202.564,283.230 202.234,283.230 201.910 C 283.230 201.585,283.455 201.115,283.730 200.866 C 284.031 200.594,284.175 200.238,284.091 199.973 C 284.000 199.688,284.130 199.438,284.460 199.261 C 284.751 199.106,284.969 198.739,284.969 198.407 C 284.969 198.087,285.137 197.686,285.342 197.516 C 285.636 197.271,285.714 196.561,285.714 194.123 C 285.714 191.612,285.783 191.014,286.087 190.897 C 286.402 190.777,286.460 189.952,286.460 185.594 C 286.460 181.310,286.396 180.381,286.087 180.124 C 285.817 179.900,285.714 179.307,285.714 177.974 C 285.714 176.567,285.626 176.100,285.342 175.990 C 285.071 175.887,284.969 175.462,284.969 174.439 C 284.969 173.337,284.861 172.937,284.472 172.604 C 284.133 172.314,283.975 171.871,283.975 171.209 C 283.975 170.576,283.846 170.190,283.602 170.096 C 283.398 170.018,283.230 169.667,283.230 169.317 C 283.230 168.967,283.062 168.616,282.857 168.537 C 282.652 168.458,282.484 168.144,282.484 167.838 C 282.484 167.532,282.261 167.080,281.988 166.832 C 281.714 166.585,281.491 166.173,281.491 165.916 C 281.491 165.659,281.155 165.121,280.745 164.720 C 280.335 164.320,280.000 163.776,280.000 163.512 C 280.000 163.249,279.609 162.689,279.130 162.269 C 278.652 161.849,278.261 161.305,278.261 161.059 C 278.261 160.500,271.375 153.540,270.822 153.540 C 270.599 153.540,269.866 152.981,269.193 152.298 C 268.517 151.612,267.742 151.056,267.461 151.056 C 267.182 151.056,266.627 150.665,266.229 150.186 C 265.802 149.675,265.278 149.317,264.956 149.317 C 264.655 149.317,264.269 149.149,264.099 148.944 C 263.929 148.739,263.598 148.571,263.362 148.571 C 263.127 148.571,262.732 148.348,262.484 148.075 C 262.188 147.747,261.719 147.578,261.110 147.578 C 260.591 147.578,260.049 147.414,259.876 147.205 C 259.706 147.000,259.313 146.832,259.002 146.832 C 258.692 146.832,258.374 146.665,258.295 146.460 C 258.192 146.190,257.770 146.087,256.776 146.087 C 255.706 146.087,255.304 145.976,254.973 145.590 C 254.609 145.164,254.241 145.093,252.398 145.093 C 250.789 145.093,250.169 144.999,249.938 144.720 C 249.470 144.156,240.374 144.168,240.057 144.734 C 239.890 145.033,239.485 145.102,238.244 145.044 L 236.646 144.969 236.571 143.932 C 236.529 143.362,236.333 142.762,236.136 142.598 C 235.938 142.434,235.776 141.891,235.776 141.391 C 235.776 140.791,235.608 140.339,235.280 140.058 C 234.940 139.767,234.783 139.325,234.783 138.663 C 234.783 138.030,234.653 137.643,234.410 137.550 C 234.205 137.471,234.037 137.120,234.037 136.770 C 234.037 136.420,233.870 136.069,233.665 135.990 C 233.460 135.912,233.292 135.597,233.292 135.291 C 233.292 134.986,233.068 134.533,232.795 134.286 C 232.522 134.038,232.298 133.651,232.298 133.424 C 232.298 132.734,231.391 131.098,230.580 130.326 C 230.159 129.925,229.814 129.390,229.814 129.138 C 229.814 128.885,229.478 128.351,229.068 127.950 C 228.658 127.550,228.323 127.040,228.323 126.819 C 228.323 126.299,218.148 116.025,217.633 116.025 C 217.418 116.025,216.857 115.637,216.386 115.163 C 215.914 114.689,215.304 114.294,215.031 114.286 C 214.758 114.277,214.148 113.882,213.677 113.408 C 213.205 112.934,212.574 112.547,212.275 112.547 C 211.975 112.547,211.666 112.379,211.587 112.174 C 211.509 111.969,211.158 111.801,210.807 111.801 C 210.457 111.801,210.109 111.640,210.034 111.444 C 209.958 111.247,209.578 111.016,209.189 110.931 C 208.800 110.845,208.348 110.615,208.186 110.419 C 208.023 110.223,207.693 110.062,207.453 110.062 C 207.214 110.062,206.878 109.894,206.708 109.689 C 206.535 109.480,205.993 109.317,205.474 109.317 C 204.865 109.317,204.396 109.147,204.099 108.820 C 203.827 108.519,203.334 108.323,202.849 108.323 C 202.409 108.323,201.909 108.155,201.739 107.950 C 201.539 107.709,200.987 107.578,200.175 107.578 C 199.329 107.578,198.765 107.436,198.441 107.143 C 198.083 106.819,197.418 106.685,195.830 106.619 C 194.446 106.561,193.578 106.408,193.353 106.184 C 192.816 105.647,172.719 105.673,172.512 106.211 C 172.420 106.452,172.035 106.584,171.420 106.584 C 170.898 106.584,170.303 106.752,170.098 106.957 C 169.893 107.161,169.645 107.329,169.548 107.329 C 169.225 107.329,167.088 108.419,166.584 108.841 C 166.063 109.278,163.478 109.645,163.478 109.282 C 163.478 109.167,163.087 108.560,162.609 107.933 C 162.130 107.307,161.739 106.649,161.739 106.471 C 161.739 106.293,161.571 106.009,161.366 105.839 C 161.161 105.668,160.994 105.324,160.994 105.073 C 160.994 104.822,160.438 104.026,159.759 103.302 C 159.079 102.579,158.520 101.853,158.516 101.689 C 158.506 101.243,147.050 89.939,146.599 89.930 C 146.386 89.926,145.653 89.367,144.970 88.688 C 144.287 88.009,143.546 87.453,143.323 87.453 C 143.100 87.453,142.779 87.286,142.609 87.081 C 142.439 86.876,142.112 86.708,141.883 86.708 C 141.654 86.708,141.081 86.320,140.609 85.846 C 140.137 85.372,139.514 84.981,139.223 84.977 C 138.932 84.972,138.555 84.801,138.385 84.596 C 138.215 84.391,137.883 84.224,137.648 84.224 C 137.412 84.224,137.018 84.000,136.770 83.727 C 136.523 83.453,136.072 83.230,135.768 83.230 C 135.465 83.230,135.077 83.062,134.907 82.857 C 134.737 82.652,134.344 82.484,134.033 82.484 C 133.723 82.484,133.405 82.317,133.326 82.112 C 133.233 81.869,132.847 81.739,132.220 81.739 C 131.573 81.739,131.110 81.576,130.807 81.242 C 130.511 80.914,130.042 80.745,129.429 80.745 C 128.833 80.745,128.449 80.612,128.357 80.373 C 128.262 80.124,127.870 80.000,127.178 80.000 C 126.561 80.000,126.030 79.853,125.866 79.637 C 125.704 79.424,125.091 79.250,124.383 79.217 C 123.670 79.183,122.941 78.975,122.604 78.710 C 122.136 78.342,121.565 78.261,119.428 78.261 C 117.342 78.261,116.795 78.187,116.680 77.888 C 116.558 77.570,115.593 77.516,110.100 77.516 C 104.682 77.516,103.614 77.574,103.354 77.888 " stroke="none" fill="#84ccf4" fill-rule="evenodd"></path><path id="path1" d="M262.236 13.433 C 261.141 13.756,258.003 16.845,257.837 17.764 C 257.591 19.116,257.877 35.398,258.148 35.489 C 258.287 35.536,259.136 36.177,260.034 36.913 C 263.174 39.487,265.641 39.428,268.554 36.708 C 270.677 34.726,270.548 35.433,270.528 25.847 L 270.509 17.284 268.904 15.710 C 266.319 13.176,264.829 12.667,262.236 13.433 M182.174 46.701 C 181.593 46.965,180.391 47.890,179.503 48.756 L 177.888 50.332 177.888 52.255 C 177.888 54.854,179.131 56.529,185.779 62.898 C 186.017 63.126,186.641 63.828,187.166 64.458 C 187.691 65.088,188.552 65.823,189.078 66.092 C 189.605 66.361,190.125 66.741,190.235 66.937 C 190.882 68.093,193.414 68.394,195.604 67.574 C 199.547 66.099,200.767 59.884,197.627 57.264 C 196.974 56.719,196.057 55.864,195.589 55.364 C 193.834 53.488,192.346 52.034,191.689 51.553 C 191.316 51.280,190.825 50.766,190.598 50.412 C 188.676 47.407,184.587 45.606,182.174 46.701 M343.230 46.402 C 341.693 46.666,341.252 47.001,336.854 51.242 C 336.039 52.028,335.295 52.672,335.202 52.673 C 335.047 52.675,332.582 55.101,330.350 57.447 C 328.522 59.370,328.072 61.381,328.961 63.655 C 330.378 67.280,335.450 69.384,337.664 67.265 C 338.129 66.820,338.845 66.246,339.255 65.990 C 339.885 65.596,342.697 63.001,343.679 61.907 C 343.842 61.726,345.121 60.410,346.522 58.983 C 347.922 57.556,349.068 56.271,349.068 56.128 C 349.068 55.985,349.367 55.476,349.733 54.997 C 352.310 51.618,347.773 45.622,343.230 46.402 M257.832 60.015 C 257.755 60.091,256.535 60.267,255.120 60.406 C 253.704 60.544,251.168 60.929,249.483 61.260 C 247.798 61.592,246.177 61.864,245.881 61.865 C 245.584 61.866,245.027 62.031,244.642 62.231 C 244.258 62.432,243.385 62.670,242.704 62.760 C 241.943 62.861,240.586 63.392,239.191 64.133 C 237.796 64.875,236.602 65.342,236.099 65.342 C 235.530 65.342,235.280 65.458,235.280 65.720 C 235.280 65.944,234.970 66.161,234.525 66.250 C 234.111 66.333,233.668 66.595,233.541 66.831 C 233.403 67.089,232.894 67.317,232.272 67.401 C 231.700 67.477,231.165 67.633,231.082 67.748 C 230.999 67.862,230.320 68.234,229.572 68.574 C 228.825 68.914,227.698 69.545,227.068 69.975 C 226.438 70.406,225.261 71.097,224.452 71.513 C 223.643 71.928,222.324 72.805,221.520 73.463 C 220.716 74.120,219.601 74.959,219.042 75.326 C 218.483 75.693,217.185 76.815,216.156 77.818 C 215.127 78.821,213.432 80.428,212.388 81.389 C 210.700 82.944,209.254 84.554,206.492 87.952 C 206.031 88.518,205.394 89.101,205.075 89.246 C 204.757 89.391,204.431 89.809,204.350 90.176 C 204.270 90.542,203.645 91.785,202.962 92.937 C 202.280 94.089,201.384 95.730,200.972 96.584 C 200.560 97.438,200.119 98.137,199.991 98.137 C 199.716 98.137,198.652 100.200,198.411 101.201 C 198.317 101.588,197.982 102.315,197.666 102.816 C 196.563 104.563,196.519 106.335,197.578 106.335 C 197.864 106.335,198.301 106.519,198.549 106.744 C 198.798 106.969,199.589 107.207,200.308 107.273 C 201.027 107.338,201.727 107.477,201.863 107.581 C 202.000 107.685,202.587 107.848,203.168 107.944 C 203.748 108.040,204.316 108.284,204.430 108.487 C 204.543 108.690,205.112 108.920,205.694 108.998 C 206.275 109.076,206.809 109.291,206.880 109.477 C 206.951 109.662,207.337 109.814,207.736 109.814 C 208.153 109.814,208.524 109.973,208.606 110.186 C 208.684 110.391,208.992 110.559,209.288 110.559 C 209.585 110.559,210.019 110.783,210.253 111.056 C 210.487 111.329,210.907 111.553,211.185 111.553 C 211.464 111.553,211.757 111.720,211.836 111.925 C 211.914 112.130,212.218 112.299,212.511 112.299 C 212.804 112.300,213.395 112.630,213.826 113.034 C 214.256 113.437,214.908 113.842,215.274 113.934 C 215.641 114.026,216.000 114.255,216.071 114.442 C 216.143 114.629,216.346 114.783,216.522 114.783 C 216.697 114.783,216.906 114.950,216.984 115.155 C 217.063 115.360,217.285 115.528,217.477 115.528 C 217.669 115.528,218.274 115.947,218.822 116.460 C 219.369 116.972,220.277 117.802,220.840 118.305 C 221.403 118.807,221.863 119.273,221.863 119.340 C 221.863 119.406,223.373 120.991,225.217 122.862 C 227.062 124.732,228.571 126.413,228.571 126.596 C 228.571 126.779,228.962 127.354,229.440 127.874 C 229.917 128.394,230.309 129.021,230.309 129.267 C 230.310 129.513,230.690 130.072,231.153 130.510 C 232.188 131.486,232.547 132.163,232.547 133.143 C 232.547 133.641,232.714 133.985,233.043 134.161 C 233.337 134.318,233.540 134.682,233.540 135.048 C 233.540 135.389,233.708 135.732,233.913 135.811 C 234.118 135.889,234.286 136.204,234.286 136.510 C 234.286 136.816,234.509 137.268,234.783 137.516 C 235.110 137.812,235.280 138.281,235.280 138.890 C 235.280 139.409,235.443 139.951,235.652 140.124 C 235.863 140.299,236.025 140.841,236.025 141.370 C 236.025 141.974,236.157 142.358,236.398 142.450 C 236.653 142.548,236.770 142.947,236.770 143.719 L 236.770 144.845 238.269 144.845 C 239.371 144.845,239.805 144.746,239.910 144.472 C 240.031 144.158,240.832 144.099,245.003 144.099 C 249.174 144.099,249.976 144.158,250.096 144.472 C 250.209 144.765,250.714 144.845,252.451 144.845 C 254.356 144.845,254.722 144.914,255.089 145.342 C 255.421 145.730,255.822 145.839,256.923 145.839 C 257.946 145.839,258.371 145.941,258.475 146.211 C 258.554 146.416,258.904 146.584,259.255 146.584 C 259.605 146.584,259.956 146.752,260.034 146.957 C 260.128 147.200,260.514 147.329,261.147 147.329 C 261.809 147.329,262.252 147.487,262.542 147.826 C 262.776 148.099,263.226 148.323,263.541 148.323 C 263.857 148.323,264.179 148.491,264.258 148.696 C 264.337 148.901,264.647 149.068,264.947 149.068 C 265.247 149.068,265.872 149.460,266.335 149.938 C 266.799 150.416,267.386 150.807,267.640 150.807 C 267.895 150.807,268.639 151.366,269.294 152.050 C 269.949 152.733,270.676 153.292,270.910 153.292 C 271.476 153.292,278.509 160.312,278.509 160.876 C 278.509 161.118,278.901 161.696,279.379 162.161 C 279.857 162.625,280.248 163.203,280.248 163.444 C 280.248 163.685,280.584 164.204,280.994 164.596 C 281.404 164.989,281.739 165.565,281.739 165.876 C 281.739 166.188,281.962 166.562,282.236 166.708 C 282.517 166.859,282.733 167.228,282.733 167.560 C 282.733 167.882,282.901 168.210,283.106 168.289 C 283.311 168.367,283.478 168.701,283.478 169.030 C 283.478 169.359,283.646 169.768,283.851 169.938 C 284.058 170.110,284.224 170.651,284.224 171.155 C 284.224 171.756,284.392 172.208,284.720 172.489 C 285.106 172.819,285.217 173.222,285.217 174.291 C 285.217 175.286,285.321 175.707,285.590 175.811 C 285.877 175.921,285.963 176.398,285.963 177.888 C 285.963 179.378,286.048 179.855,286.335 179.966 C 286.651 180.087,286.708 180.929,286.708 185.428 C 286.708 189.853,286.645 190.799,286.335 191.056 C 286.041 191.300,285.963 192.011,285.963 194.448 C 285.963 196.959,285.894 197.558,285.590 197.674 C 285.385 197.753,285.217 198.071,285.217 198.381 C 285.217 198.692,285.050 199.085,284.845 199.255 C 284.188 199.799,284.440 200.000,285.779 200.000 C 286.816 200.000,287.149 199.898,287.396 199.503 C 287.668 199.067,287.975 199.006,289.910 199.006 C 291.565 199.006,292.190 198.914,292.422 198.634 C 292.601 198.419,293.143 198.261,293.703 198.261 C 294.337 198.261,294.724 198.132,294.817 197.888 C 294.921 197.617,295.348 197.516,296.386 197.516 C 297.496 197.516,297.911 197.406,298.261 197.019 C 298.508 196.745,298.961 196.522,299.267 196.522 C 299.572 196.522,299.887 196.354,299.966 196.149 C 300.044 195.944,300.367 195.776,300.682 195.776 C 300.998 195.776,301.447 195.553,301.681 195.280 C 301.915 195.006,302.318 194.783,302.576 194.783 C 302.834 194.783,303.184 194.615,303.354 194.410 C 303.524 194.205,303.883 194.037,304.151 194.037 C 304.419 194.037,304.985 193.646,305.409 193.168 C 305.832 192.689,306.385 192.298,306.638 192.298 C 306.891 192.298,307.425 191.963,307.826 191.553 C 308.227 191.143,308.753 190.807,308.996 190.807 C 309.593 190.807,319.006 181.380,319.006 180.782 C 319.006 180.526,319.733 179.611,320.621 178.749 C 321.509 177.886,322.236 176.981,322.236 176.737 C 322.236 176.493,322.795 175.761,323.478 175.109 C 324.161 174.457,324.720 173.703,324.720 173.434 C 324.720 173.164,325.112 172.563,325.590 172.099 C 326.068 171.634,326.460 171.041,326.460 170.781 C 326.460 170.521,326.851 169.982,327.329 169.583 C 327.807 169.184,328.202 168.626,328.206 168.342 C 328.209 168.058,328.545 167.500,328.951 167.101 C 329.357 166.703,329.689 166.176,329.689 165.931 C 329.689 165.686,329.900 165.285,330.158 165.041 C 330.492 164.723,330.657 164.136,330.737 162.981 C 330.842 161.455,332.651 156.576,333.486 155.569 C 333.637 155.386,333.859 154.548,333.979 153.705 C 334.099 152.863,334.278 151.615,334.376 150.932 C 334.474 150.248,334.733 149.410,334.951 149.068 C 335.168 148.727,335.419 147.865,335.506 147.154 C 335.594 146.443,335.831 145.395,336.032 144.825 C 336.233 144.255,336.401 143.216,336.406 142.515 C 336.411 141.815,336.577 140.571,336.775 139.752 C 337.345 137.392,337.274 128.238,336.664 125.342 C 336.405 124.112,336.249 122.811,336.319 122.450 C 336.388 122.090,336.311 121.544,336.147 121.238 C 335.983 120.932,335.759 119.629,335.649 118.343 C 335.538 117.057,335.318 115.848,335.158 115.655 C 334.998 115.463,334.776 114.713,334.664 113.988 C 334.552 113.264,334.158 111.888,333.788 110.932 C 333.418 109.975,332.676 107.966,332.138 106.466 C 331.601 104.967,330.833 103.229,330.432 102.605 C 330.032 101.980,329.530 100.971,329.317 100.362 C 329.104 99.753,328.568 98.696,328.125 98.012 C 326.936 96.179,326.732 95.834,326.463 95.212 C 326.329 94.901,325.812 94.010,325.314 93.231 C 324.816 92.453,324.283 91.455,324.130 91.015 C 323.976 90.575,323.273 89.565,322.567 88.772 C 321.862 87.978,320.408 86.309,319.338 85.062 C 316.669 81.955,316.830 82.117,314.085 79.752 C 312.738 78.590,311.421 77.329,311.159 76.948 C 310.897 76.568,310.233 75.991,309.682 75.666 C 309.132 75.341,308.070 74.582,307.322 73.980 C 306.574 73.379,305.124 72.399,304.099 71.802 C 303.075 71.206,302.012 70.532,301.739 70.305 C 300.970 69.665,298.955 68.609,296.770 67.699 C 295.677 67.244,293.012 66.019,290.847 64.976 C 288.682 63.933,286.309 62.969,285.574 62.833 C 284.838 62.697,283.926 62.424,283.547 62.226 C 283.167 62.028,282.466 61.863,281.988 61.859 C 281.509 61.855,280.671 61.736,280.124 61.595 C 274.883 60.244,258.747 59.100,257.832 60.015 M362.484 126.634 C 358.977 127.909,356.711 131.871,358.083 134.330 C 358.612 135.276,361.093 138.065,361.777 138.481 C 362.675 139.027,378.180 139.088,379.216 138.550 C 379.968 138.160,382.112 136.228,382.112 135.940 C 382.112 135.831,382.518 135.267,383.014 134.687 C 384.675 132.747,382.903 128.482,379.814 126.987 C 378.752 126.473,363.768 126.168,362.484 126.634 " stroke="none" fill="#fbd33f" fill-rule="evenodd"></path></g></svg>